General                          : ChattChitto RG - Movies [R2L]
==========
Complete name                    : The Twilight Saga Eclipse 2010 720p H264 BRRip [ChattChitto RG]
Format                           : MPEG-4
Format profile                   : Base Media
Codec ID                         : isom
File size                        : 2.30 GiB
Duration                         : 2h 3mn
Overall bit rate                 : 2 657 Kbps
Encoded date                     : UTC 2011-01-13 07:01:02

Video
==========
ID                               : 1
Format                           : AVC
Format/Info                      : Advanced Video Codec
Format profile                   : High@L4.0
Format settings, CABAC           : Yes
Format settings, ReFrames        : 4 frames
Codec ID                         : avc1
Codec ID/Info                    : Advanced Video Coding
Duration                         : 2h 3mn
Bit rate mode                    : Variable
Bit rate                         : 2 300 Kbps
Maximum bit rate                 : 20.3 Mbps
Width                            : 1 280 pixels
Height                           : 528 pixels
Display aspect ratio             : 2.40:1
Frame rate mode                  : Constant
Frame rate                       : 23.976 fps
Resolution                       : 24 bits
Colorimetry                      : 4:2:0
Scan type                        : Progressive
Bits/(Pixel*Frame)               : 0.142
Stream size                      : 1.99 GiB (87%)
Writing library                  : x264 core 84 r1400M 20fa784
Encoded date                     : UTC 2011-01-13 05:23:15

Audio
==========
ID                               : 2
Format                           : AAC
Format/Info                      : Advanced Audio Codec
Format version                   : Version 4
Format profile                   : LC
Format settings, SBR             : No
Codec ID                         : 40
Duration                         : 2h 3mn
Bit rate mode                    : Variable
Bit rate                         : 352.8 Kbps
Maximum bit rate                 : 448 Kbps
Channel(s)                       : 6 channels
Channel positions                : Front: L C R, Rear: L R, LFE
Sampling rate                    : 48.0 KHz
Resolution                       : 16 bits
Stream size                      : 314 MiB (13%)
Encoded date                     : UTC 2011-01-13 07:02:20

Subtitles                        : Dutch | English | Portuguese | Romanian | Spanish


----------------------------------------------------
IMDB Link: http://www.imdb.com/title/tt1325004/
----------------------------------------------------



Screen Shots:
==============     
http://bayimg.com/padloAAde 
http://bayimg.com/pAdlpaAde 
http://bayimg.com/AadMBAadE 
http://bayimg.com/aAdMCaAde 
http://bayimg.com/aadMDAade



ScreenShots Comparison:
=========================   
http://screenshotcomparison.com/comparison/19823



Plot:
======
Bella once again finds herself surrounded by danger as Seattle is ravaged by a string of mysterious killings and a malicious vampire continues her quest for revenge. In the midst of it all, she is forced to choose between her love for Edward and her friendship with Jacob -- knowing that her decision has the potential to ignite the ageless struggle between vampire and werewolf. With her graduation quickly approaching, Bella is confronted with the most important decision of her life.    



Release Info:
==============
original name .... : The Twilight Saga Eclipse 2010 720p H264 BRRip [ChattChitto RG]
ripper.............: FraMeSToR
encoder............: Recalled2Life (R2L)
video codec........: H264/.MP4
video bitrate......: 2300 Kbps
audio codec........: AAC-LC
aspect ratio.......: 2.40:1
resolution.........: 1280 x 528
genre..............: Drama | Fantasy | Romance
runtime............: 2h 3mn
language...........: English
rating.............: PG-13
subtitles..........: Dutch | English | Portuguese | Romanian | Spanish
sample.............: Yes [27.3 MB]
2ch Audio..........: 2ch Audio for XBox Viewers
Compatibility .....: XBox 360 | PS3 | WD Live



Source:
========
The.Twilight.Saga.Eclipse.2010.BluRay.1080p.DTS-HDMA5.1.x264.dxva - FraMeSToR THANKS!



Notes:
=======
ChattChitto RG Encourages Burning this Film with ConvertXtoDVD and Playing with VLC media player.
XBox 360 | PS3 | WD Live - Compatible 
Enhanced for your viewing pleasure ;)